<!DOCTYPE svg PUBLIC "-//W3C//DTD SVG 1.1//EN" "http://www.w3.org/Graphics/SVG/1.1/DTD/svg11.dtd">

<!-- Uploaded to: SVG Repo, www.svgrepo.com, Transformed by: SVG Repo Mixer Tools -->
<svg fill="#218842" width="85px" height="80px" viewBox="-7.53 0 113.6247 113.6247" xmlns="http://www.w3.org/2000/svg" stroke="#218842" stroke-width="0.0011362470000000002">

<g id="SVGRepo_bgCarrier" stroke-width="0"/>

<g id="SVGRepo_tracerCarrier" stroke-linecap="round" stroke-linejoin="round"/>

<g id="SVGRepo_iconCarrier">

<defs>

<style>.a{fill-rule:evenodd;}</style>

</defs>

<path class="a" d="M98.5581,28.6887a.5654.5654,0,0,0-.2817-.489L73.9194,14.1371l-.0006.0011-.0017-.0011L49.5607.0749a.5642.5642,0,0,0-.5618,0L24.6714,14.12l-.0315.0171L.3226,28.1771A.5664.5664,0,0,0,0,28.6887V84.936H.0017a.5652.5652,0,0,0,.2818.489L24.64,99.4879l.0006-.0011.0017.0011L48.9989,113.55a.5639.5639,0,0,0,.5618,0L73.8879,99.505l.0315-.0171,24.3178-14.04a.5665.5665,0,0,0,.3226-.5117V28.6887ZM97.4265,56.8126v27.798L73.353,98.51l-.0278.0173L49.28,112.41,25.2057,98.5108l.0006-.0008L1.1333,84.6106V29.0141L25.2063,15.115l.0278-.0173L49.28,1.215,73.3536,15.1142l-.0006.0008L97.4265,29.0141Z"/>

<path class="a" d="M70.994,19.2045l-.0017-.0011L49.5939,6.8492a.5656.5656,0,0,0-.5973-.0193L27.5653,19.2034l0,.0009L6.1835,31.5494a.5667.5667,0,0,0-.3333.5165V81.5594H5.853a.5637.5637,0,0,0,.2829.489L27.5675,94.4216l6.6088,3.8154.0025.0026,14.8178,8.5552.0006-.0011.0006,0,.0011.0006a.5646.5646,0,0,0,.1019.0276.5469.5469,0,0,0,.46-.0273L61.7264,99.771l9.2659-5.3494L92.376,82.0759a.5666.5666,0,0,0,.3334-.5165V32.0659h-.0017a.5653.5653,0,0,0-.2818-.489L70.9946,19.2034ZM42.1079,80.2367l0-.0008-.0043-.01-.7327-1.8133c.559-.112,1.1474-.2126,1.7614-.3014.6759-.097,1.3838-.1791,2.117-.2441.081.56.1576,1.1215.214,1.6906q.1084,1.0959.1573,2.2114a.5428.5428,0,0,0,.0273.1143.5883.5883,0,0,0,.0229.0957.5505.5505,0,0,0,.0676.0972.5653.5653,0,0,0,.0536.0749,5.429,5.429,0,0,0,.1758.1159.5738.5738,0,0,0,.1057.0226.5355.5355,0,0,0,.1.0216c.0044,0,.0087,0,.013,0l.002,0c.0078,0,.0151-.0007.0228-.0005.4961.01.9787-.0043,1.4547-.0312.105-.006.21-.0116.3142-.0193.4733-.0351.9385-.0852,1.392-.1567.0563-.0089.1109-.0212.1669-.0307.418-.07.8268-.1577,1.2282-.2588.08-.02.16-.0384.2395-.06q.6483-.1744,1.2679-.4018c.0243-.0089.05-.0146.0746-.0236.0479-.0179.0925-.0417.14-.06q.5244-.202,1.0286-.4413c.0635-.03.1283-.0582.1914-.0892.0449-.0222.0916-.041.1362-.0636.094-.0476.1793-.1106.2722-.16.3818-.2035.7553-.4219,1.1186-.6582q.2278-.1484.4508-.3052.533-.3744,1.0382-.7976c.1077-.09.2192-.1729.3251-.2658.0346-.03.0717-.0561.106-.0867a17.2254,17.2254,0,0,1,4.7923,1.5681c1.0193.5621,1.601,1.1645,1.601,1.7572a1.0436,1.0436,0,0,1-.0518.2764,1.3014,1.3014,0,0,1-.0894.2232c-.02.04-.0417.08-.0665.1193a1.986,1.986,0,0,1-.1909.2535c-.03.0336-.06.0672-.0927.1006a3.2811,3.2811,0,0,1-.2727.2461c-.0467.0377-.0949.0753-.1456.1126-.0988.0732-.2058.1455-.3194.217q-.1107.0695-.23.1378-.1579.0907-.3315.1792-.1619.0822-.3369.1628c-.1061.049-.2151.0976-.3282.1455-.1391.0587-.284.1165-.4332.1735-.1121.043-.2256.0856-.3434.1274-.1559.0555-.3184.11-.4837.163-.1279.0413-.2568.0824-.39.1224-.1837.0553-.3754.108-.5684.16-.1547.0419-.309.084-.47.1238-.1991.05-.4058.096-.6134.1422-.1624.0361-.3233.0728-.4907.107-.2181.0444-.4441.0852-.67.1259-.1705.0309-.3387.0627-.5136.0914-.2365.0387-.481.0732-.725.108-.1753.025-.3477.0516-.5267.0744-.2565.0328-.5212.0605-.7848.0888-.1777.019-.352.04-.5327.0573-.28.0262-.5677.0466-.8545.0678-.173.0128-.3425.0283-.518.0392-.3226.02-.6529.033-.9829.0463-.147.0059-.29.0151-.4386.02q-.7229.0221-1.4651.0228t-1.4649-.0228c-.1491-.0046-.2934-.0139-.4411-.02-.3291-.0132-.6586-.0262-.98-.0461-.1765-.0109-.3471-.0266-.5213-.0394-.2855-.0211-.5721-.0414-.8507-.0675-.182-.0171-.3575-.0385-.5363-.0577-.2625-.0282-.526-.0558-.7813-.0884-.18-.0229-.353-.05-.529-.0748-.2433-.0346-.4872-.069-.723-.1077-.1752-.0287-.3436-.0606-.5144-.0914-.2259-.0408-.4519-.0816-.67-.126-.167-.0341-.3276-.0707-.49-.1067-.2082-.0464-.4156-.093-.6152-.1426-.16-.04-.313-.0814-.4668-.1231-.1949-.0526-.3882-.1058-.5735-.1616-.1287-.0387-.2531-.0783-.3767-.1181-.169-.0546-.3347-.11-.4939-.1664-.1121-.04-.2207-.08-.3277-.1212q-.2319-.0883-.4477-.1793-.1583-.0669-.3073-.1354c-.1238-.0566-.242-.114-.3562-.172-.1065-.0544-.21-.1091-.3076-.1646-.0876-.0494-.17-.0994-.25-.15-.1053-.0661-.2065-.1325-.299-.2-.0572-.0414-.11-.0832-.1618-.1252a3.34,3.34,0,0,1-.2605-.23c-.0371-.0368-.0693-.0738-.1025-.1109a2.0874,2.0874,0,0,1-.19-.2429c-.0265-.0411-.0472-.0824-.0688-.1236a1.3305,1.3305,0,0,1-.0971-.2231,1.0422,1.0422,0,0,1-.0558-.2974,1.6281,1.6281,0,0,1,.7064-1.1571l.0266-.0238a8.0374,8.0374,0,0,1,2.2111-1.1886l3.3692,1.6011a.5651.5651,0,0,0,.7657-.7215Zm9.1294-13.3574c-.05-.0768-.1-.1535-.1487-.23q-.1669-.2632-.3255-.5259-.0774-.1279-.1532-.2555-.1356-.2286-.2671-.4569c-.24-.4188-.4668-.83-.6873-1.2378-.0381-.0705-.0767-.1409-.1145-.2113,1.5261-.6577,3.02-1.3516,4.4616-2.1012a46.2251,46.2251,0,0,0,4.7545-2.8239c1.2867-.8782,2.8752-2.0018,4.6429-3.2519,6.47-4.5757,15.3474-10.8536,19.1843-12.0813.84-.2687,1.7955.6052,2.47,1.6937a6.4956,6.4956,0,0,1,.71,1.5679,2.7642,2.7642,0,0,1,.1289,1.2265c-.0377.1894-.1375.3155-.3143.3274C76.27,49.148,69.9512,54.1628,63.6,59.2037c-3.8044,3.0192-7.6218,6.0491-12.0806,8.1019Q51.3752,67.0922,51.2373,66.8793Zm-1.79-.7547.003.0055.0051.0084c.4119.7112.8562,1.424,1.356,2.141.0114.0164.0212.0328.0327.0492l.0076.008a25.3432,25.3432,0,0,0,5.21,5.4412,13.7577,13.7577,0,0,1-4.2279,3.3334A13.704,13.704,0,0,1,46.455,78.38c-.0218-.1722-.0456-.3436-.07-.515-.0307-.2187-.05-.44-.0845-.6578-.0009-.01-.0068-.018-.0082-.028a37.6048,37.6048,0,0,0-.8955-4.1539,36.4919,36.4919,0,0,0-2.9889-7.4721l5.3034-2.6159.4036.7583C48.5461,64.5064,48.9782,65.3146,49.4469,66.1246Zm6.8256,11.5308c-.1532.134-.3078.2656-.4649.3923-.2494.2011-.5055.3894-.7648.5719-.1548.109-.3076.2215-.466.3238-.3082.199-.6265.3793-.9485.5526-.1171.063-.2294.1348-.3484.1944a13.53,13.53,0,0,1-1.4006.6053c-.0794.0291-.1633.05-.2436.0782q-.5915.2044-1.2115.358c-.1534.0379-.31.0706-.4659.1037q-.5523.1173-1.1274.1933c-.1561.0209-.31.0452-.4688.0616-.5335.0552-1.077.0927-1.6394.0961-.0317-.5667-.0766-1.1284-.1311-1.6852A14.7479,14.7479,0,0,0,52.3253,78.13a14.923,14.923,0,0,0,4.6393-3.6652c.4488.3307.9135.6628,1.4147.9983A17.2116,17.2116,0,0,1,56.2725,77.6554ZM35.0286,83.7486c.0191.0159.0454.03.065.0462a6.3792,6.3792,0,0,0,.5941.4227c.0408.0259.0741.0536.1162.0792.2319.1419.4856.2781.7547.41-.0014.0162-.0095.03-.0095.0468v13.55l-1.5205-.8779Zm2.6538,1.4419c.0161.0061.0343.0114.05.0174.0991.037.2068.0707.3091.1066.1976.0692.3878.1411.5971.206.08.0247.1682.0463.2494.07.0332.01.0619.0213.0953.0311V95.9285a.5667.5667,0,0,0,1.1333,0V85.9223c.1157.0276.24.0517.3584.0784.1918.0432.3823.0867.5807.1271.201.0409.4089.0785.6164.1166.2.0367.3981.0741.604.1079.22.0362.447.0682.6729.101.2052.03.4074.0608.6173.0878.241.031.4894.057.7364.0841.2055.0225.4076.0471.617.0669.27.0255.5464.0451.8219.0659.1823.0138.36.0312.5449.0429V96.8052a.5667.5667,0,1,0,1.1333,0v-9.95c.1233.0048.2434.0126.3675.0164.3075.0095.6212.0115.9336.0152v16.566a.5667.5667,0,0,0,1.1333,0V86.8865c.3135-.0036.6281-.0057.9364-.0152.1232-.0038.2425-.0116.3647-.0163v7.1533a.5667.5667,0,0,0,1.1333,0V86.801c.1843-.0116.3616-.0289.5434-.0427.2773-.0209.5558-.0405.827-.0662.2076-.02.4079-.0441.6117-.0664.2488-.0273.499-.0534.7417-.0846.2087-.0268.41-.0578.6137-.0874.2272-.033.4554-.0651.6764-.1015.2051-.0337.4024-.071.6018-.1076.208-.0381.4165-.0757.618-.1168.1985-.04.3892-.0839.5813-.1272.117-.0264.24-.05.3548-.0777V95.9285a.5667.5667,0,0,0,1.1333,0V85.6229c.0341-.01.0635-.0217.0974-.0318.0815-.0242.17-.0459.25-.0706.21-.065.4-.137.5982-.2064.1018-.0357.2091-.0692.3078-.1061.0163-.006.0345-.0115.0507-.0175V98.9478l-3.7384,2.1583V88.7347a.5667.5667,0,0,0-1.1333,0V101.76l-1.3014.7514V95.5152a.5666.5666,0,1,0-1.1332,0v7.6507l-4.31,2.4881-4.2946-2.48V95.5152a.5667.5667,0,1,0-1.1333,0V102.52l-1.3014-.7514V88.7347a.5667.5667,0,0,0-1.1333,0v12.38l-3.7355-2.1568Zm25.2325-.9891A6.4033,6.4033,0,0,0,63.48,83.8c.0211-.0171.0494-.0326.07-.05V97.4158l-1.52.8778v-13.54c0-.0166-.008-.0305-.0094-.0467.2673-.1311.52-.2662.7505-.407C62.8231,84.2679,62.8646,84.2337,62.9149,84.2014ZM91.5761,56.8126V81.2354L70.4305,93.4436l-5.7472,3.318V82.0506a.5451.5451,0,0,0-.0275-.1364c.0061-.0629.0275-.1239.0275-.1876,0-1.0445-.7957-1.98-2.19-2.7487A17.2163,17.2163,0,0,0,58.11,77.46a19.7136,19.7136,0,0,0,1.5419-1.7912l-.0008-.0005.0229-.0326a.5651.5651,0,0,0-.1661-.7813,27.2243,27.2243,0,0,1-7.3312-6.62c4.4947-2.1053,8.3208-5.1247,12.1263-8.145,6.2124-4.9305,12.3931-9.8353,21.3506-10.4408a1.39,1.39,0,0,0,1.35-1.239,3.8528,3.8528,0,0,0-.155-1.7578,7.6521,7.6521,0,0,0-.834-1.8468c-.9187-1.4831-2.34-2.6356-3.7754-2.1761C78.232,43.91,69.2765,50.2433,62.7492,54.86c-1.7847,1.262-3.3886,2.3964-4.6293,3.2434a45.124,45.124,0,0,1-4.6394,2.753c-1.4664.7625-2.9638,1.45-4.4762,2.1-.1434-.27-.3034-.5682-.5446-1.0117l-.0022-.0045a.5654.5654,0,0,0-.7569-.2569L41.3811,64.8l0,.0006-.0246.0127a.565.565,0,0,0-.2191.768,35.3913,35.3913,0,0,1,3.1711,7.7456c.31,1.119.5542,2.2645.7579,3.4255-.7172.0654-1.4208.1423-2.0939.2391-.8714.1256-1.7042.2787-2.4863.4539a.5642.5642,0,0,0-.4164.7648l.4462,1.1043-2.2751-1.0811v0a.5632.5632,0,0,0-.4337-.02,9.4741,9.4741,0,0,0-2.7666,1.4658l-.0357.0278a2.6763,2.6763,0,0,0-1.1095,2.02c0,.0634.0214.1242.0274.1868a.5471.5471,0,0,0-.0277.1372V96.7724l-5.7659-3.3288L6.9835,81.2354V32.39L28.1294,20.1814l.0017-.0012,0,.0012L49.2809,7.9706l21.1479,12.21-.0006.0009,21.1479,12.21Z"/>

<path class="a" d="M42.7746,32.1643a5.93,5.93,0,0,1-4.8189-8.9861l-.0012-.0006a.5646.5646,0,0,0-.466-.8558l-.1454-.0051v0l-.013,0-.0924-.0011c-.0193-.0017-.0386-.0029-.0584-.0029a7.0664,7.0664,0,1,0,3.473,13.2194l-.0006-.0008a7.1028,7.1028,0,0,0,2.5832-2.5107l-.0008-.0006a.5647.5647,0,0,0-.4595-.8557ZM40.0967,34.55l-.0017.0012-.0006-.0012a5.9344,5.9344,0,1,1-3.5595-11.0687,7.0679,7.0679,0,0,0,5.2019,9.6984A5.9475,5.9475,0,0,1,40.0967,34.55Z"/>

<path class="a" d="M23.239,63.4006a.5667.5667,0,1,0,1.1333,0V55.9637l2.6442,2.1727a.5645.5645,0,0,0,.7172-.8719l-3.3614-2.7619V50.6868l2.6442,2.1726a.5645.5645,0,0,0,.7172-.8719l-3.3614-2.7619V45.41l2.6442,2.1724a.5645.5645,0,0,0,.7172-.872l-3.3614-2.7615V40.1328l2.6442,2.1724a.5645.5645,0,0,0,.7172-.8719l-3.3614-2.7617V34.8552l2.6442,2.1725a.5645.5645,0,0,0,.7172-.872l-3.5686-2.9318a.5653.5653,0,0,0-.718-.0006L19.878,36.1557a.5645.5645,0,1,0,.7172.872l2.6438-2.1724v3.8166l-3.361,2.7614a.5645.5645,0,1,0,.7172.8719l2.6438-2.1723v3.8159L19.878,46.71a.5645.5645,0,0,0,.7172.872L23.239,45.41v3.8158l-3.361,2.7617a.5645.5645,0,1,0,.7172.8719l2.6438-2.1725v3.816l-3.361,2.7616a.5645.5645,0,1,0,.7172.8719l2.6438-2.1725Z"/>

<path class="a" d="M39.2684,48.0836a.5645.5645,0,0,0,.7172-.8719L36.417,44.28a.5653.5653,0,0,0-.718-.0005L32.13,47.2117a.5645.5645,0,1,0,.7172.8719l2.6441-2.1723v3.8165L32.13,52.4892a.5645.5645,0,0,0,.7172.872l2.6441-2.1723v3.8155L32.13,57.7659a.5645.5645,0,0,0,.7172.872l2.6441-2.1723v3.8156L32.13,63.0426a.5645.5645,0,0,0,.7172.872l2.6441-2.1724v7.4369a.5667.5667,0,0,0,1.1333,0v-7.437l2.6442,2.1725a.5645.5645,0,0,0,.7172-.872l-3.3614-2.7615V56.4654l2.6442,2.1725a.5645.5645,0,0,0,.7172-.872l-3.3614-2.7616V51.1888l2.6442,2.1724a.5645.5645,0,0,0,.7172-.872l-3.3614-2.7616V45.9112Z"/>

<path class="a" d="M52.2845,40.1061a.5645.5645,0,1,0,.7172-.8719l-3.5686-2.9319a.5653.5653,0,0,0-.718-.0006L45.146,39.2342a.5645.5645,0,1,0,.7172.8719l2.64-2.1688v3.8159L45.146,44.5111a.5645.5645,0,0,0,.7172.872l2.64-2.1689V47.03l-3.3568,2.758a.5645.5645,0,1,0,.7172.872l2.64-2.1688V55.924a.5709.5709,0,1,0,1.1418,0V48.4906l2.64,2.1689a.5645.5645,0,0,0,.7172-.872L49.6446,47.03V43.2142l2.64,2.1689a.5645.5645,0,1,0,.7172-.872l-3.3571-2.758V37.9372Z"/>

<path class="a" d="M30.0232,71.544a.5645.5645,0,0,0,.7172-.8719L27.1718,67.74a.5653.5653,0,0,0-.718-.0006l-3.5694,2.9325a.5645.5645,0,1,0,.7172.8719l2.64-2.1688v3.8155l-3.3571,2.7581a.5645.5645,0,1,0,.7172.8719l2.64-2.1689v3.8156l-3.3571,2.7581a.5645.5645,0,1,0,.7172.8719l2.64-2.1688v7.4333a.5709.5709,0,0,0,1.1418,0V79.9285l2.64,2.1689a.5645.5645,0,0,0,.7172-.8719l-3.3571-2.7581V74.6518l2.64,2.1689a.5645.5645,0,0,0,.7172-.8719l-3.3571-2.7581V69.3751Z"/>

<path class="a" d="M68.944,29.1527a.5647.5647,0,0,0,.7946.0774l2.64-2.1689v3.8159l-3.3571,2.7581a.5645.5645,0,1,0,.7172.8719l2.64-2.1689v3.8156l-3.3571,2.7581a.5645.5645,0,1,0,.7172.8719l2.64-2.1689V45.048a.5709.5709,0,0,0,1.1418,0V37.615l2.64,2.1688a.5645.5645,0,0,0,.7172-.8719L73.52,36.1538V32.3383l2.64,2.1688a.5645.5645,0,0,0,.7172-.8719L73.52,30.8771V27.0613L76.16,29.23a.5645.5645,0,0,0,.7172-.8719l-3.5683-2.9319a.5653.5653,0,0,0-.718-.0006l-3.5694,2.9325A.5647.5647,0,0,0,68.944,29.1527Z"/>

<path class="a" d="M86.1707,56.75a.5645.5645,0,0,0,.7172-.872l-3.5685-2.9318a.5654.5654,0,0,0-.7181-.0006l-3.5691,2.9324a.5645.5645,0,0,0,.7172.872l2.6439-2.1724v3.8162l-3.3611,2.7615a.5645.5645,0,1,0,.7172.8719l2.6439-2.1724V63.671l-3.3611,2.7616a.5645.5645,0,1,0,.7172.8719l2.6439-2.1724v3.8156l-3.3611,2.7616a.5645.5645,0,1,0,.7172.8719l2.6439-2.1724v7.4366a.5667.5667,0,1,0,1.1333,0V70.4089l2.6441,2.1723a.5645.5645,0,1,0,.7172-.8719l-3.3613-2.7617V65.1322l2.6441,2.1723a.5645.5645,0,1,0,.7172-.8719l-3.3613-2.7617V59.8552l2.6441,2.1723a.5645.5645,0,1,0,.7172-.8719L83.5266,58.394V54.578Z"/>

<path class="a" d="M73.5262,66.9556a.5645.5645,0,1,0,.7172-.872l-3.5683-2.9318a.5653.5653,0,0,0-.718-.0006l-3.5694,2.9324a.5645.5645,0,1,0,.7172.872l2.64-2.1689v3.8159l-3.3571,2.758a.5645.5645,0,1,0,.7172.8719l2.64-2.1689V73.879l-3.3571,2.758a.5645.5645,0,1,0,.7172.872l2.64-2.1689v7.4334a.5709.5709,0,0,0,1.1418,0V75.34l2.64,2.1689a.5645.5645,0,1,0,.7172-.872l-3.3568-2.7581V70.0636l2.64,2.1689a.5645.5645,0,1,0,.7172-.8719l-3.3568-2.7581V64.7867Z"/>

<path class="a" d="M17.0068,58.79a.5645.5645,0,0,0,.7172-.8719L14.1557,54.986a.5653.5653,0,0,0-.718-.0006L9.8683,57.9179a.5645.5645,0,1,0,.7172.8719L13.23,56.6175v3.8161L9.8683,63.1951a.5645.5645,0,0,0,.7172.872L13.23,61.8948v3.8159L9.8683,68.4721a.5645.5645,0,1,0,.7172.8719L13.23,67.1717v3.8157L9.8683,73.7488a.5645.5645,0,1,0,.7172.8719L13.23,72.4484V79.885a.5667.5667,0,0,0,1.1333,0V72.4484l2.6439,2.1723a.5645.5645,0,0,0,.7172-.8719l-3.3611-2.7616V67.1716l2.6439,2.1724a.5645.5645,0,0,0,.7172-.8719L14.3629,65.71V61.8947l2.6439,2.1724a.5645.5645,0,0,0,.7172-.872l-3.3611-2.7616V56.6174Z"/>

<path class="a" d="M63.298,24.7922a.5645.5645,0,0,0,.7171-.8719l-3.5682-2.9319a.5653.5653,0,0,0-.718-.0006L56.16,23.92a.5645.5645,0,0,0,.7171.8719L59.5208,22.62v3.8163L56.16,29.1975a.5645.5645,0,0,0,.7171.872l2.6442-2.1725v3.8161L56.16,34.4745a.5645.5645,0,1,0,.7171.8719l2.6442-2.1724V36.99L56.16,39.7518a.5645.5645,0,0,0,.7171.8719l2.6442-2.1724v3.816L56.16,45.0287a.5645.5645,0,0,0,.7171.872l2.6442-2.1724v7.4369a.5667.5667,0,0,0,1.1333,0V43.7284l2.6439,2.1723a.5645.5645,0,0,0,.7171-.872l-3.361-2.7616V38.4515l2.6439,2.1722a.5645.5645,0,0,0,.7171-.8719L60.6541,36.99V33.1741l2.6439,2.1723a.5645.5645,0,1,0,.7171-.8719l-3.361-2.7616V27.8971L63.298,30.07a.5645.5645,0,0,0,.7171-.872l-3.361-2.7616V22.62Z"/>

<path class="a" d="M50.1166,21.8028a.9275.9275,0,1,0-.9275-.9275A.9294.9294,0,0,0,50.1166,21.8028Z"/>

<path class="a" d="M48.4164,14.8352a.9275.9275,0,1,0-.9275-.9275A.9294.9294,0,0,0,48.4164,14.8352Z"/>

<path class="a" d="M41.9593,19.763a.9275.9275,0,1,0-.9275-.9275A.9294.9294,0,0,0,41.9593,19.763Z"/>

<path class="a" d="M25.8152,30.13a.9275.9275,0,1,0-.9275-.9275A.9294.9294,0,0,0,25.8152,30.13Z"/>

<path class="a" d="M15.4489,36.5869a.9274.9274,0,1,0-.9275-.9272A.9291.9291,0,0,0,15.4489,36.5869Z"/>

<path class="a" d="M33.0308,41.0976a.9275.9275,0,1,0-.9275.9275A.9293.9293,0,0,0,33.0308,41.0976Z"/>

<path class="a" d="M14.8615,45.6855a.9275.9275,0,1,0,.9275-.9275A.9294.9294,0,0,0,14.8615,45.6855Z"/>

<path class="a" d="M48.587,29.6343a.9275.9275,0,1,0,.9275.9275A.9294.9294,0,0,0,48.587,29.6343Z"/>

<circle cx="56.2335" cy="16.7971" r="0.9275"/>

<circle cx="68.554" cy="25.2083" r="0.9275"/>

<circle cx="80.9595" cy="35.9995" r="0.9275"/>

<path class="a" d="M88.8614,36.4171a.9275.9275,0,1,0-.9275-.9275A.9294.9294,0,0,0,88.8614,36.4171Z"/>

<path class="a" d="M10.8613,42.3647a.9275.9275,0,1,0-.9275-.9275A.9294.9294,0,0,0,10.8613,42.3647Z"/>

<path class="a" d="M40.9394,41.87a.9275.9275,0,1,0,.9275.9275A.9294.9294,0,0,0,40.9394,41.87Z"/>

<circle cx="52.8353" cy="25.2939" r="0.9275"/>

<path class="a" d="M64.73,19.6082a.9275.9275,0,1,0,.9275.9275A.9294.9294,0,0,0,64.73,19.6082Z"/>

<circle cx="66.3449" cy="33.96" r="0.9275"/>

<circle cx="83.4234" cy="31.5815" r="0.9275"/>

<circle cx="11.3709" cy="52.1431" r="0.9275"/>

<path class="a" d="M43.6584,24.8764a.9275.9275,0,1,0,.9275.9275A.9294.9294,0,0,0,43.6584,24.8764Z"/>

<circle cx="19.3576" cy="29.2018" r="0.9275"/>

</g>

</svg>